<?xml version="1.0" encoding="utf-8"?>
<!-- Generator: Adobe Illustrator 19.2.1, SVG Export Plug-In . SVG Version: 6.00 Build 0)  -->
<svg version="1.1" id="Layer_1" xmlns="http://www.w3.org/2000/svg" xmlns:xlink="http://www.w3.org/1999/xlink" x="0px" y="0px"
	 viewBox="0 0 448 448" style="enable-background:new 0 0 448 448;" xml:space="preserve">
<style type="text/css">
	.st0{fill:#AEDDAA;}
</style>
<g>
	<path class="st0" d="M224,0C100.3,0,0,100.3,0,224s100.3,224,224,224s224-100.3,224-224S347.7,0,224,0z M338.9,149.1L199.8,327.6
		c-1.1,1.1-2.9,3.5-5.1,3.5c-2.3,0-3.8-1.6-5.1-2.9s-78.9-75.9-78.9-75.9l-1.5-1.5c-0.6-0.9-1.1-2-1.1-3.2s0.5-2.3,1.1-3.2
		c0.4-0.4,0.7-0.7,1.1-1.2c7.7-8.1,23.3-24.5,24.3-25.5c1.3-1.3,2.4-3,4.8-3c2.5,0,4.1,2.1,5.3,3.3s45,43.3,45,43.3l111.3-143
		c1-0.8,2.2-1.4,3.5-1.4s2.5,0.5,3.5,1.3l30.6,24.1c0.8,1,1.3,2.2,1.3,3.5C340,147.1,339.5,148.2,338.9,149.1z"/>
</g>
</svg>
