<?xml version="1.0" encoding="utf-8"?>
<!-- Generator: Adobe Illustrator 19.2.1, SVG Export Plug-In . SVG Version: 6.00 Build 0)  -->
<svg version="1.1" id="Layer_1" xmlns="http://www.w3.org/2000/svg" xmlns:xlink="http://www.w3.org/1999/xlink" x="0px" y="0px"
	 viewBox="0 0 256 256" style="enable-background:new 0 0 256 256;" xml:space="preserve">
<style type="text/css">
	.st0{fill:#78ACFF;}
</style>
<g id="_x37_5">
	<g>
		<path class="st0" d="M128,2.6C56.9,3.2,2.1,59,2.6,130.3C3.1,198.1,60,253.4,128.2,253.4c68.7-0.1,126.3-57.1,125.2-128.1
			C252.3,58.1,195.7,2.1,128,2.6z M127.6,191.4v1.3V191.4c-3.1,0-6.1-1.3-8.3-3.5c-2.3-2.3-3.4-5.2-3.4-8.3c0-6.7,5.2-11.8,12-11.8
			c6.5,0.1,11.6,5.5,11.5,12C139.4,186.2,134.1,191.4,127.6,191.4z M163.9,113.8c-4.3,5.6-9.8,10.2-15.2,14.7l-1.3,1.1
			c-7.5,6.3-8.4,8.2-8.6,18c0,2.6-0.1,5.1-0.1,7.6c0,1.8-0.6,2.4-2.3,2.4c-1.2,0-2.4,0-3.6,0h-4.2v0h-10.4c-1.9,0-2.2-0.5-2.3-2.1
			c-0.4-8,0.2-16,1.8-23.7c0.9-4.2,3.1-7.9,7.1-11.7c3.2-3,6.6-6,9.9-8.8c1.6-1.4,3.2-2.8,4.8-4.2l0.3-0.2c0.9-0.8,2-1.7,2.9-2.7
			c4.4-5,3.8-12.3-1.3-16.9c-4-3.6-8.9-5-15.8-4.1c-8.3,1-13.6,6.1-16.2,15.5c-0.1,0.3-0.1,0.6-0.2,0.8c0,0.3-0.1,0.5-0.2,0.8
			c-0.5,1.6-1.3,1.5-2.1,1.4c-6.4-0.8-12.8-1.5-19.1-2.3c-1.3-0.2-1.9-0.7-1.8-2.6c1.2-16.3,14.3-29.7,31.7-32.7
			c10.1-1.7,19.4-1,27.9,1.9c11.2,4,18.8,11.2,22.5,21.5C171.5,97,170.1,105.8,163.9,113.8z"/>
	</g>
</g>
</svg>
