<?xml version="1.0" encoding="utf-8"?>
<!-- Generator: Adobe Illustrator 19.2.1, SVG Export Plug-In . SVG Version: 6.00 Build 0)  -->
<svg version="1.1" id="Layer_1" xmlns="http://www.w3.org/2000/svg" xmlns:xlink="http://www.w3.org/1999/xlink" x="0px" y="0px"
	 viewBox="0 0 32 32" style="enable-background:new 0 0 32 32;" xml:space="preserve">
<style type="text/css">
	.st0{fill:#3D3D3D;}
</style>
<path class="st0" d="M30,24h-4v6c0,1.1-0.9,2-2,2H8c-1.1,0-2-0.9-2-2v-6H2c-1.1,0-2-0.9-2-2V8c0-1.1,0.9-2,2-2h4V2c0-1.1,0.9-2,2-2
	h16c1.1,0,2,0.9,2,2v4h4c1.1,0,2,0.9,2,2v14C32,23.1,31.1,24,30,24L30,24z M8,30h16V20H8V30L8,30z M24,2H8v4h16V2L24,2z M30,20v-1V8
	h-4H6H2v4v10h2h1h1v-2H5c-0.6,0-1-0.4-1-1c0-0.6,0.4-1,1-1h3l0,0h16l0,0h3c0.6,0,1,0.4,1,1c0,0.6-0.4,1-1,1h-1v2h4V20L30,20z M25,14
	L25,14c-0.6,0-1-0.4-1-1c0-0.6,0.4-1,1-1l0,0c0.6,0,1,0.4,1,1C26,13.6,25.6,14,25,14L25,14z M21,28H11c-0.6,0-1-0.4-1-1
	c0-0.6,0.4-1,1-1h10c0.6,0,1,0.4,1,1C22,27.6,21.6,28,21,28L21,28z M21,24H11c-0.6,0-1-0.4-1-1c0-0.6,0.4-1,1-1h10c0.6,0,1,0.4,1,1
	C22,23.6,21.6,24,21,24L21,24z"/>
</svg>
