<?xml version="1.0" encoding="utf-8"?>
<!-- Generator: Adobe Illustrator 19.2.1, SVG Export Plug-In . SVG Version: 6.00 Build 0)  -->
<svg version="1.1" id="Layer_1" xmlns="http://www.w3.org/2000/svg" xmlns:xlink="http://www.w3.org/1999/xlink" x="0px" y="0px"
	 viewBox="0 0 32 32" style="enable-background:new 0 0 32 32;" xml:space="preserve">
<style type="text/css">
	.st0{fill:#3D3D3D;}
</style>
<path class="st0" d="M30,32H2c-1.1,0-2-0.9-2-2V2c0-1.1,0.9-2,2-2h28c1.1,0,2,0.9,2,2v28C32,31.1,31.1,32,30,32L30,32z M24,2H8v10
	h16V2L24,2z M30,2h-4v10c0,1.1-0.9,2-2,2H8c-1.1,0-2-0.9-2-2V2H2v28h28L30,2L30,2z M7,20h18c0.6,0,1,0.4,1,1c0,0.6-0.4,1-1,1H7
	c-0.6,0-1-0.4-1-1C6,20.4,6.4,20,7,20L7,20z M7,24h18c0.6,0,1,0.4,1,1c0,0.6-0.4,1-1,1H7c-0.6,0-1-0.4-1-1C6,24.4,6.4,24,7,24L7,24z
	 M19,4c0.6,0,1,0.4,1,1v4c0,0.6-0.4,1-1,1c-0.6,0-1-0.4-1-1V5C18,4.4,18.4,4,19,4L19,4z"/>
</svg>
