<?xml version="1.0" encoding="utf-8"?>
<!-- Generator: Adobe Illustrator 19.2.1, SVG Export Plug-In . SVG Version: 6.00 Build 0)  -->
<svg version="1.1" id="Layer_1" xmlns="http://www.w3.org/2000/svg" xmlns:xlink="http://www.w3.org/1999/xlink" x="0px" y="0px"
	 viewBox="0 0 128 128" style="enable-background:new 0 0 128 128;" xml:space="preserve">
<style type="text/css">
	.st0{fill:#D8D8D8;}
</style>
<g>
	<path class="st0" d="M64,128C28.7,128,0,99.3,0,64S28.7,0,64,0s64,28.7,64,64S99.3,128,64,128z M64,8C33.1,8,8,33.1,8,64
		c0,30.9,25.1,56,56,56c30.9,0,56-25.1,56-56C120,33.1,94.9,8,64,8z"/>
</g>
<g>
	<g>
		<circle class="st0" cx="44" cy="47.8" r="8"/>
	</g>
	<g>
		<circle class="st0" cx="84" cy="47.8" r="8"/>
	</g>
</g>
<g>
	<path class="st0" d="M34,93.5c-0.7,0-1.4-0.2-2-0.5c-1.9-1.1-2.6-3.6-1.5-5.5C37.6,75.3,48.9,69.1,64,69.1s26.4,6.2,33.5,18.5
		c1.1,1.9,0.5,4.4-1.5,5.5c-1.9,1.1-4.4,0.5-5.5-1.5C84.9,81.8,76.2,77.1,64,77.1c-12.2,0-20.9,4.7-26.5,14.5
		C36.7,92.8,35.4,93.5,34,93.5z"/>
</g>
</svg>
