<?xml version="1.0" encoding="utf-8"?>
<!-- Generator: Adobe Illustrator 19.2.1, SVG Export Plug-In . SVG Version: 6.00 Build 0)  -->
<svg version="1.1" id="Untitled-Page_x25_201" xmlns="http://www.w3.org/2000/svg" xmlns:xlink="http://www.w3.org/1999/xlink"
	 x="0px" y="0px" viewBox="0 0 22 22" style="enable-background:new 0 0 22 22;" xml:space="preserve">
<style type="text/css">
	.st0{fill:none;}
	.st1{fill:none;stroke:#F5AC81;stroke-width:2;}
	.st2{fill:#CECECE;}
</style>
<path class="st0" d="z"/>
<g id="Layer_x25_201">
	<path id="Ellipse" class="st1" d="M1,11C1,5.5,5.5,1,11,1s10,4.5,10,10s-4.5,10-10,10S1,16.5,1,11z"/>
	<path class="st2" d="M15.3,9.4c-0.1-0.1-0.2-0.2-0.4-0.2l-3.1,0.7l1-4.6c0-0.2,0-0.4-0.2-0.4c-0.2-0.1-0.4,0-0.5,0.1l-5.5,7.4
		c-0.1,0.1-0.1,0.3-0.1,0.4c0.1,0.1,0.2,0.2,0.4,0.2l3-0.7l-0.9,4.6c-0.1,0.2,0,0.4,0.2,0.5c0.1,0,0.1,0.1,0.2,0.1
		c0.1,0,0.2,0,0.3-0.1l5.5-7.4C15.4,9.7,15.4,9.5,15.3,9.4z"/>
</g>
<path class="st0" d="z"/>
</svg>
