<?xml version="1.0" standalone="no"?>
<!-- Generator: Adobe Fireworks 10, Export SVG Extension by Aaron Beall (http://fireworks.abeall.com) . Version: 0.6.1  -->
<!DOCTYPE svg PUBLIC "-//W3C//DTD SVG 1.1//EN" "http://www.w3.org/Graphics/SVG/1.1/DTD/svg11.dtd">
<svg id="Untitled-Page%201" viewBox="0 0 17 20" style="background-color:#ffffff" version="1.1"
	xmlns="http://www.w3.org/2000/svg" xmlns:xlink="http://www.w3.org/1999/xlink" xml:space="preserve"
	x="0px" y="0px" width="17px" height="20px"
>
	<g id="Layer%201">
		<path d="M 13 19 L 1 19 L 1 1 L 13 1 " stroke="#a2a2a2" stroke-width="1" fill="none"/>
		<path d="M 9 10 C 9 8.8954 9.8954 8 11 8 C 12.1046 8 13 8.8954 13 10 C 13 11.1046 12.1046 12 11 12 C 9.8954 12 9 11.1046 9 10 ZM 5 10 C 5 12.2092 8.7908 14 11 14 C 13.2092 14 17 12.2092 17 10 C 17 7.7908 13.2092 6 11 6 C 8.7908 6 5 7.7908 5 10 Z" fill="#5480ff"/>
	</g>
</svg>