<?xml version="1.0" standalone="no"?>
<!-- Generator: Adobe Fireworks 10, Export SVG Extension by Aaron Beall (http://fireworks.abeall.com) . Version: 0.6.1  -->
<!DOCTYPE svg PUBLIC "-//W3C//DTD SVG 1.1//EN" "http://www.w3.org/Graphics/SVG/1.1/DTD/svg11.dtd">
<svg id="Untitled-Page%201" viewBox="0 0 24 17" style="background-color:#ffffff" version="1.1"
	xmlns="http://www.w3.org/2000/svg" xmlns:xlink="http://www.w3.org/1999/xlink" xml:space="preserve"
	x="0px" y="0px" width="24px" height="17px"
>
	<g id="Layer%201">
		<path d="M 9.7167 7.9 L 4 7.8975 L 13.9979 17 L 14.0007 17 L 14.0035 16.9949 L 13.9993 16.9987 L 9.7167 7.9 ZM 18.2792 7.9 L 14.0035 16.9949 L 24 7.8975 L 18.2792 7.9 Z" fill="#b3b3b3"/>
		<path d="M 4.0084 7.9 L 9.7055 7.8975 L 8.291 4.0026 L 4.0084 7.9 ZM 19.7076 4.0026 L 18.2945 7.8975 L 23.9875 7.9 L 19.7076 4.0026 ZM 13.9979 17 L 18.2861 7.8975 L 9.7139 7.8975 L 13.9979 17 Z" fill="#cccccc"/>
		<path d="M 8.2896 4 L 9.7167 7.9 L 18.2792 7.9 L 19.7062 4 L 8.2896 4 Z" fill="#e6e6e6"/>
		<path id="Ellipse" d="M 0 7 C 0 3.134 3.134 0 7 0 C 10.866 0 14 3.134 14 7 C 14 10.866 10.866 14 7 14 C 3.134 14 0 10.866 0 7 Z" fill="#ffffff"/>
		<path d="M 10.9705 4.6835 C 10.9135 4.5722 10.7837 4.4999 10.64 4.4999 L 7.8206 5.0625 L 8.7197 1.3828 C 8.757 1.2431 8.6794 1.0995 8.5315 1.0346 C 8.3845 0.9692 8.2029 0.9985 8.0927 1.1054 L 3.0906 6.9927 C 2.9966 7.0825 2.9736 7.2104 3.032 7.3198 C 3.0906 7.4297 3.2195 7.5 3.3611 7.5 L 6.144 6.9375 L 5.3049 10.5942 C 5.2555 10.7334 5.3235 10.8843 5.469 10.957 C 5.5262 10.9863 5.5891 11 5.6512 11 C 5.7489 11 5.845 10.9658 5.9155 10.9014 L 10.9023 5.0132 C 11.0006 4.9248 11.0273 4.7949 10.9705 4.6835 Z" fill="#f76e6e"/>
	</g>
</svg>