<?xml version="1.0" standalone="no"?>
<!-- Generator: Adobe Fireworks 10, Export SVG Extension by Aaron Beall (http://fireworks.abeall.com) . Version: 0.6.1  -->
<!DOCTYPE svg PUBLIC "-//W3C//DTD SVG 1.1//EN" "http://www.w3.org/Graphics/SVG/1.1/DTD/svg11.dtd">
<svg id="Untitled-Page%201" viewBox="0 0 16 20" style="background-color:#ffffff" version="1.1"
	xmlns="http://www.w3.org/2000/svg" xmlns:xlink="http://www.w3.org/1999/xlink" xml:space="preserve"
	x="0px" y="0px" width="16px" height="20px"
>
	<g id="Layer%201">
		<path d="M 13 19 L 1 19 L 1 1 L 13 1 " stroke="#a2a2a2" stroke-width="1" fill="none"/>
		<path d="M 16 8.7322 C 16 7.2233 14.8107 6 13.3438 6 C 12.3286 6 11.4471 6.5862 11 7.4473 C 10.5529 6.5862 9.6714 6 8.6563 6 C 7.1893 6 6 7.2233 6 8.7322 C 6 9.5693 6.367 10.3175 6.9433 10.8186 L 6.9375 10.8214 C 6.9375 10.8214 10.314 14.5364 10.5579 14.8013 C 10.8021 15.0662 11.1978 15.0662 11.4419 14.8013 C 11.686 14.5364 15.0625 10.8214 15.0625 10.8214 L 15.0567 10.8186 C 15.633 10.3175 16 9.5693 16 8.7322 Z" fill="#f76e6e"/>
	</g>
</svg>