<?xml version="1.0" standalone="no"?>
<!-- Generator: Adobe Fireworks 10, Export SVG Extension by Aaron Beall (http://fireworks.abeall.com) . Version: 0.6.1  -->
<!DOCTYPE svg PUBLIC "-//W3C//DTD SVG 1.1//EN" "http://www.w3.org/Graphics/SVG/1.1/DTD/svg11.dtd">
<svg id="Untitled-Page%201" viewBox="0 0 26 15" style="background-color:#ffffff" version="1.1"
	xmlns="http://www.w3.org/2000/svg" xmlns:xlink="http://www.w3.org/1999/xlink" xml:space="preserve"
	x="0px" y="0px" width="26px" height="15px"
>
	<g id="Layer%201">
		<path d="M 25.1875 13.3333 C 25.1875 13.3333 24.375 13.5205 24.375 12.5 L 24.375 8.3333 C 24.375 7.7507 24.6765 3.3333 20.3125 3.3333 C 15.2161 3.3333 14.625 5.5208 14.625 6.6667 C 14.625 7.8386 15.5843 8.3333 17.0625 8.3333 C 17.7988 8.3333 18.6875 7.675 18.6875 6.6667 C 18.6875 5.5794 17.875 5.7292 17.875 5 C 17.875 4.6614 18.7129 4.1667 19.5 4.1667 C 20.2768 4.1667 21.125 4.7729 21.125 5.8333 L 21.125 7.5 C 17.2783 9.5491 14.625 10.603 14.625 12.5 C 14.625 13.894 15.355 15 17.0625 15 C 18.77 15 20.1824 14.3001 21.125 13.3333 C 21.125 14.79 22.1779 15 23.5625 15 C 24.9653 15 26 14.1667 26 14.1667 L 25.1875 13.3333 ZM 21.125 12.5 C 21.125 12.5 20.2871 13.3333 19.5 13.3333 C 18.459 13.3333 17.875 12.7344 17.875 11.6667 C 17.875 10.5989 19.0303 9.5939 21.125 8.3333 L 21.125 12.5 Z" fill="#cecece"/>
		<path d="M 13.8125 13.3333 C 13.4063 13.3333 13.146 12.889 13 12.5 L 8.9375 1.6667 C 8.6154 0.8073 8.2099 0 7.3125 0 C 6.4151 0 6.0096 0.8073 5.6875 1.6667 L 1.625 12.5 C 1.479 12.889 1.2188 13.3333 0.8125 13.3333 C 0.3634 13.3333 0 13.7061 0 14.1667 C 0 14.6265 0.3634 15 0.8125 15 L 4.0625 15 C 4.5108 15 4.875 14.6265 4.875 14.1667 C 4.875 13.7061 4.5108 13.3333 4.0625 13.3333 C 3.25 13.3333 3.104 12.889 3.25 12.5 L 3.5626 11.6667 L 9.4374 11.6667 L 9.75 12.5 C 9.896 12.889 9.75 13.3333 8.9375 13.3333 C 8.4884 13.3333 8.125 13.7061 8.125 14.1667 C 8.125 14.6265 8.4884 15 8.9375 15 L 13.8125 15 C 14.2608 15 14.625 14.6265 14.625 14.1667 C 14.625 13.7061 14.2608 13.3333 13.8125 13.3333 ZM 4.1875 10 L 6.5 3.833 L 8.8125 10 L 4.1875 10 Z" fill="#5480ff"/>
	</g>
</svg>