<?xml version="1.0" standalone="no"?>
<!-- Generator: Adobe Fireworks 10, Export SVG Extension by Aaron Beall (http://fireworks.abeall.com) . Version: 0.6.1  -->
<!DOCTYPE svg PUBLIC "-//W3C//DTD SVG 1.1//EN" "http://www.w3.org/Graphics/SVG/1.1/DTD/svg11.dtd">
<svg id="Untitled-Page%201" viewBox="0 0 22 18" style="background-color:#ffffff" version="1.1"
	xmlns="http://www.w3.org/2000/svg" xmlns:xlink="http://www.w3.org/1999/xlink" xml:space="preserve"
	x="0px" y="0px" width="22px" height="18px"
>
	<g id="Layer%201">
		<path d="M 0 0 L 0 12 L 0 14 L 0 18 L 5.335 14 L 20 14 L 20 0 L 0 0 Z" stroke="#cecece" stroke-width="2" fill="#ffffff"/>
		<path id="Ellipse" d="M 9 10.5 C 9 6.9101 11.91 4 15.5 4 C 19.09 4 22 6.9101 22 10.5 C 22 14.0899 19.09 17 15.5 17 C 11.91 17 9 14.0899 9 10.5 Z" fill="#ffffff"/>
		<path d="M 20.6963 7.2822 C 20.3022 6.8877 19.6636 6.8877 19.2695 7.2822 L 15.0088 11.5425 L 12.7544 9.2842 C 12.3511 8.8799 11.6973 8.8799 11.2939 9.2842 C 10.8906 9.6885 10.8906 10.3438 11.2939 10.7471 L 14.2144 13.6729 C 14.3208 13.7798 14.4458 13.854 14.5781 13.9043 C 14.9492 14.0713 15.3975 14.0083 15.7021 13.7031 L 20.6963 8.709 C 21.0903 8.3154 21.0903 7.6758 20.6963 7.2822 Z" fill="#4ec085"/>
	</g>
</svg>