<?xml version="1.0" standalone="no"?>
<!-- Generator: Adobe Fireworks 10, Export SVG Extension by Aaron Beall (http://fireworks.abeall.com) . Version: 0.6.1  -->
<!DOCTYPE svg PUBLIC "-//W3C//DTD SVG 1.1//EN" "http://www.w3.org/Graphics/SVG/1.1/DTD/svg11.dtd">
<svg id="Untitled-Page%201" viewBox="0 0 28 28" style="background-color:#ffffff00" version="1.1"
	xmlns="http://www.w3.org/2000/svg" xmlns:xlink="http://www.w3.org/1999/xlink" xml:space="preserve"
	x="0px" y="0px" width="28px" height="28px"
>
	<g id="Layer%201">
		<path id="Ellipse" d="M 0 14 C 0 6.2679 6.2679 0 14 0 C 21.7321 0 28 6.2679 28 14 C 28 21.7321 21.7321 28 14 28 C 6.2679 28 0 21.7321 0 14 Z" fill="#ffffff"/>
		<path d="M 16.3103 6.2414 L 8.2413 14.3104 L 7 23 L 15.6897 21.7586 L 21.8965 15.5518 L 16.3103 6.2414 Z" fill="#e6e6e6"/>
		<path d="M 7.4297 19.4183 L 7 23 L 10.5817 22.5703 C 10.1945 21.0191 8.9808 19.8057 7.4297 19.4183 Z" fill="#666666"/>
		<path d="M 15.8479 21.6004 L 15.6897 21.7586 C 15.6897 21.7586 15.7682 21.6992 15.8479 21.6004 ZM 23.1379 10.5862 L 19.4138 6.8621 L 17.5516 5 L 8.3995 14.1522 C 8.6033 13.9885 8.9906 13.8182 9.4828 14.3104 C 10.2137 15.0413 10.1035 16.1724 10.1035 16.1724 C 10.1035 16.1724 11.8552 16.6828 12.5862 17.4138 C 13.3173 18.1448 13.8276 19.8965 13.8276 19.8965 C 13.8276 19.8965 14.9586 19.7863 15.6897 20.5173 C 16.1819 21.0095 16.0118 21.3967 15.8479 21.6004 L 25 12.4482 L 23.1379 10.5862 ZM 8.2413 14.3104 L 8.3995 14.1522 C 8.3004 14.2316 8.2413 14.3104 8.2413 14.3104 Z" fill="#ffcc66"/>
		<path id="Ellipse2" d="M 3 12 C 3 8.134 6.134 5 10 5 C 13.866 5 17 8.134 17 12 C 17 15.866 13.866 19 10 19 C 6.134 19 3 15.866 3 12 Z" fill="#ffffff"/>
		<path d="M 13.9705 9.6835 C 13.9135 9.5722 13.7837 9.4999 13.64 9.4999 L 10.8206 10.0625 L 11.7197 6.3828 C 11.757 6.2431 11.6794 6.0995 11.5315 6.0346 C 11.3845 5.9692 11.2029 5.9985 11.0927 6.1054 L 6.0906 11.9927 C 5.9966 12.0825 5.9736 12.2104 6.032 12.3198 C 6.0906 12.4297 6.2195 12.5 6.3611 12.5 L 9.144 11.9375 L 8.3049 15.5942 C 8.2555 15.7334 8.3235 15.8843 8.469 15.957 C 8.5262 15.9863 8.5891 16 8.6512 16 C 8.7489 16 8.845 15.9658 8.9155 15.9014 L 13.9023 10.0132 C 14.0006 9.9248 14.0273 9.7949 13.9705 9.6835 Z" fill="#4ec085"/>
	</g>
</svg>