<?xml version="1.0" standalone="no"?>
<!-- Generator: Adobe Fireworks 10, Export SVG Extension by Aaron Beall (http://fireworks.abeall.com) . Version: 0.6.1  -->
<!DOCTYPE svg PUBLIC "-//W3C//DTD SVG 1.1//EN" "http://www.w3.org/Graphics/SVG/1.1/DTD/svg11.dtd">
<svg id="Untitled-Page%201" viewBox="0 0 22 18" style="background-color:#ffffff" version="1.1"
	xmlns="http://www.w3.org/2000/svg" xmlns:xlink="http://www.w3.org/1999/xlink" xml:space="preserve"
	x="0px" y="0px" width="22px" height="18px"
>
	<g id="Layer%201">
		<path d="M 13.3103 1.2414 L 5.2413 9.3104 L 4 18 L 12.6897 16.7586 L 18.8965 10.5518 L 13.3103 1.2414 Z" fill="#e6e6e6"/>
		<path d="M 4.4297 14.4183 L 4 18 L 7.5817 17.5703 C 7.1945 16.0191 5.9808 14.8057 4.4297 14.4183 Z" fill="#666666"/>
		<path d="M 12.8479 16.6004 L 12.6897 16.7586 C 12.6897 16.7586 12.7682 16.6992 12.8479 16.6004 ZM 20.1379 5.5862 L 16.4138 1.8621 L 14.5516 0 L 5.3995 9.1522 C 5.6033 8.9885 5.9906 8.8182 6.4828 9.3104 C 7.2137 10.0413 7.1035 11.1724 7.1035 11.1724 C 7.1035 11.1724 8.8552 11.6828 9.5862 12.4138 C 10.3173 13.1448 10.8276 14.8965 10.8276 14.8965 C 10.8276 14.8965 11.9586 14.7863 12.6897 15.5173 C 13.1819 16.0095 13.0118 16.3967 12.8479 16.6004 L 22 7.4482 L 20.1379 5.5862 ZM 5.2413 9.3104 L 5.3995 9.1522 C 5.3004 9.2316 5.2413 9.3104 5.2413 9.3104 Z" fill="#ffcc66"/>
		<path id="Ellipse" d="M 0 7 C 0 3.134 3.134 0 7 0 C 10.866 0 14 3.134 14 7 C 14 10.866 10.866 14 7 14 C 3.134 14 0 10.866 0 7 Z" fill="#ffffff"/>
		<path d="M 10.9705 4.6835 C 10.9135 4.5722 10.7837 4.4999 10.64 4.4999 L 7.8206 5.0625 L 8.7197 1.3828 C 8.757 1.2431 8.6794 1.0995 8.5315 1.0346 C 8.3845 0.9692 8.2029 0.9985 8.0927 1.1054 L 3.0906 6.9927 C 2.9966 7.0825 2.9736 7.2104 3.032 7.3198 C 3.0906 7.4297 3.2195 7.5 3.3611 7.5 L 6.144 6.9375 L 5.3049 10.5942 C 5.2555 10.7334 5.3235 10.8843 5.469 10.957 C 5.5262 10.9863 5.5891 11 5.6512 11 C 5.7489 11 5.845 10.9658 5.9155 10.9014 L 10.9023 5.0132 C 11.0006 4.9248 11.0273 4.7949 10.9705 4.6835 Z" fill="#f76e6e"/>
	</g>
</svg>