<?xml version="1.0" encoding="utf-8"?>
<!-- Generator: Adobe Illustrator 19.2.1, SVG Export Plug-In . SVG Version: 6.00 Build 0)  -->
<svg version="1.1" id="Layer_1" xmlns="http://www.w3.org/2000/svg" xmlns:xlink="http://www.w3.org/1999/xlink" x="0px" y="0px"
	 viewBox="0 0 11.9 10" style="enable-background:new 0 0 11.9 10;" xml:space="preserve">
<style type="text/css">
	.st0{fill:#FFFFFF;}
</style>
<path id="Left_4_1_" class="st0" d="M0.5,6.1h8L6.1,8.4C6,8.7,6,8.9,6.1,9.2l0.7,0.7c0.2,0.2,0.5,0.2,0.7,0.1l4.3-4.5
	c0.2-0.2,0.2-0.5,0-0.7L7.5,0.2C7.3-0.1,7-0.1,6.9,0.2L6.2,0.9C6,1.1,6,1.4,6.2,1.6l2.3,2.4h-8C0.2,4.1,0,4.3,0,4.6v1
	C0,5.9,0.2,6.1,0.5,6.1z"/>
</svg>
