<?xml version="1.0" encoding="utf-8"?>
<!-- Generator: Adobe Illustrator 19.2.1, SVG Export Plug-In . SVG Version: 6.00 Build 0)  -->
<svg version="1.1" id="Layer_1" xmlns="http://www.w3.org/2000/svg" xmlns:xlink="http://www.w3.org/1999/xlink" x="0px" y="0px"
	 viewBox="0 0 12 10" style="enable-background:new 0 0 12 10;" xml:space="preserve">
<style type="text/css">
	.st0{fill:#FEA5B0;}
</style>
<path id="Left_4" class="st0" d="M11.5,4.1h-8l2.3-2.4C6,1.4,6,1.1,5.9,0.9L5.2,0.2C5-0.1,4.7-0.1,4.5,0.2L0.1,4.8
	C0,5,0,5.3,0.1,5.5l4.3,4.5c0.3,0.1,0.6,0.1,0.7,0l0.7-0.7C6,8.9,6,8.7,5.8,8.4L3.5,6.1h8c0.3,0,0.5-0.2,0.5-0.5v-1
	C12,4.3,11.8,4.1,11.5,4.1z"/>
</svg>
