<?xml version="1.0" ?><!DOCTYPE svg  PUBLIC '-//W3C//DTD SVG 1.1//EN'  'http://www.w3.org/Graphics/SVG/1.1/DTD/svg11.dtd'><svg enable-background="new 0 0 128 128" id="Слой_1" version="1.1" viewBox="0 0 128 128" xml:space="preserve" xmlns="http://www.w3.org/2000/svg" xmlns:xlink="http://www.w3.org/1999/xlink"><g><circle cx="64" cy="64" fill="#CBE8E1" r="62"/><g><g><path d="M113.5,101.4L85,89.3l0,0l0,0l-30,12.8c-7.4,3.2-15.8,8.5-16.4,18.5C46.3,124,54.9,126,64,126     C84.2,126,102.1,116.3,113.5,101.4z" fill="#00424E"/></g><g><path d="M55.4,103.2L85,90.6l27.7,11.8c0.5-0.7,1.1-1.4,1.6-2.1L85.5,88.1c-0.1-0.1-0.3-0.1-0.4-0.1     c-0.2,0-0.4,0-0.7,0.1l-30,12.8C43.6,105.6,38,111.8,37.3,120c0.8,0.4,1.6,0.8,2.4,1.1C40,113.4,45,107.7,55.4,103.2z" fill="#0B1010"/></g><g><path d="M91.4,121l0.5-1.6c-3.7,1.9-7.5,3.4-11.6,4.5C83.7,126.9,89.7,125.9,91.4,121z" fill="#FFFFFF"/><path d="M95.3,83.4l-20.7,0.2l-4.5,12.2l8.5,25.1c0.4,1.2,1,2.1,1.8,2.8c4-1.1,7.9-2.6,11.6-4.5l7.9-23.5     L95.3,83.4z" fill="#FFFFFF"/></g><g><path d="M101.1,95.4L96.5,83c-0.2-0.5-0.7-0.8-1.2-0.8l-20.7,0.2c-0.5,0-1,0.3-1.2,0.8l-4.5,12.2     c-0.1,0.3-0.1,0.6,0,0.8l8.5,25.1c0.4,1.1,0.9,2,1.6,2.8c1-0.2,1.9-0.5,2.8-0.8c-0.9-0.6-1.7-1.5-2.1-2.8l-8.3-24.7l4-11l19-0.2     l4.1,11.2l-8.2,24.2c1.1-0.5,2.1-1,3.2-1.6l7.5-22.2C101.2,96,101.2,95.7,101.1,95.4z" fill="#0B1010"/></g><g><path d="M89.1,96.7h-8.1l2.7,4L78.4,121l0.2,0.6c0.3,0.9,0.8,1.7,1.4,2.3c3.9-1,7.7-2.5,11.3-4.2l-4.9-19     L89.1,96.7z" fill="#DD7262"/></g><g><path d="M90.1,97.4c0.3-0.4,0.3-0.9,0.1-1.3c-0.2-0.4-0.6-0.7-1.1-0.7h-8.1c-0.5,0-0.9,0.3-1.1,0.7     c-0.2,0.4-0.2,0.9,0.1,1.3l2.4,3.6l-5.1,19.2c-0.1,0.2-0.1,0.5,0,0.7l0.2,0.6c0.4,1,0.9,2,1.6,2.7c1-0.2,1.9-0.5,2.8-0.8     c-0.9-0.6-1.7-1.5-2.1-2.8l-0.1-0.2l5.2-19.3c0.1-0.3,0-0.7-0.2-1l-1.4-2.1h3.4l-1.4,2.1c-0.2,0.3-0.3,0.7-0.2,1l5.1,19.1     c0.8-0.4,1.5-0.7,2.3-1.1l-4.8-18.1L90.1,97.4z" fill="#0B1010"/></g><g><path d="M110.2,37.7c-2.2-6.6-6.5-12.1-10.8-12.1c-1.9,0-4.2-4.6-16.5-4.6c-6.8,0-13,2.8-17.4,7.4     c-5.7,5.9-7.9,14.4-6.3,22.4l0.4,2.2c1.2,0,3.8-0.6,8.2-1.4c9.6-1.7,18.7-5.7,26.5-11.8l2.7-2.1l7,11c1.7,2.7,3.2,4.3,6.3,4.3     l0.6-2.8C111.7,46.1,111.5,41.8,110.2,37.7z" fill="#65483E"/></g><g><path d="M111.4,37.3c-2.1-6.5-6.7-13-12-13c-0.2,0-0.8-0.4-1.2-0.7c-2.1-1.4-6.1-3.9-15.3-3.9     c-6.9,0-13.4,2.8-18.3,7.8c-5.9,6-8.4,14.8-6.6,23.5l0.4,2.2c0.1,0.6,0.6,1,1.2,1c0.9,0,2.3-0.3,4.7-0.7c1.1-0.2,2.3-0.4,3.7-0.7     c9.8-1.8,19.2-5.9,27-12l1.6-1.3l6.2,9.8c1.6,2.5,3.4,4.8,7.4,4.8c0.6,0,1.1-0.4,1.2-1l0.6-2.8C113,46,112.7,41.4,111.4,37.3z      M109.6,50l-0.3,1.7c-1.8-0.3-2.9-1.5-4.3-3.6l-7-11c-0.2-0.3-0.5-0.5-0.8-0.6c-0.1,0-0.1,0-0.2,0c-0.3,0-0.5,0.1-0.8,0.3     l-2.7,2.1C86,44.8,77,48.7,67.6,50.4c-1.4,0.3-2.7,0.5-3.7,0.7c-1.3,0.3-2.4,0.5-3.2,0.6l-0.2-1.1c-1.6-7.9,0.7-15.8,6-21.3     c4.4-4.5,10.3-7,16.5-7c8.5,0,11.9,2.2,13.9,3.5c0.9,0.6,1.7,1.1,2.6,1.1c3.4,0,7.5,4.7,9.6,11.3C110.2,41.8,110.4,45.9,109.6,50     z" fill="#0B1010"/></g><g><path d="M111.6,53.6c-0.5-0.6-0.9-0.9-1.2-1.2l-0.1,0.6c-3.1,0-4.6-1.6-6.3-4.3l-7-11l-2.7,2.1     c-7.7,6-16.8,10-26.5,11.8c-4.4,0.8-7,1.4-8.2,1.4l-0.1-0.5c-0.3,0.2-0.7,0.6-1.1,1.1c-0.9,1-0.2,3.8,0.5,6.1     c1.9,6.1,3.2,6.7,4.9,6.4c0,0,0.1,0,0.1-0.1c0,0.1,0.1,0.2,0.1,0.3l0.5,1.6c2.8,9.1,5.6,17.1,13.1,22.9l0.1,0.1     c1.2,1.1,2.9,1.8,4.6,1.8H85h0h2.8c1.7,0,3.3-0.6,4.6-1.8l0.1-0.1c7.5-5.8,10.3-13.8,13.1-22.9l0.5-1.6c0-0.1,0.1-0.2,0.1-0.3     c0,0,0.1,0,0.1,0.1c1.7,0.3,3-0.3,4.9-6.4C111.9,57.4,112.5,54.7,111.6,53.6z" fill="#DEB08E"/></g><g><path d="M112.6,52.8c-0.5-0.6-1-1-1.5-1.4c-0.3-0.2-0.8-0.3-1.2-0.1c-0.2,0.1-0.4,0.2-0.5,0.4     c-1.9-0.3-3-1.5-4.4-3.6l-7-11c-0.2-0.3-0.5-0.5-0.8-0.6c-0.3-0.1-0.7,0-1,0.2l-2.7,2.1C86,44.8,77,48.7,67.6,50.4     c-1.4,0.3-2.7,0.5-3.7,0.7c-1.4,0.3-2.6,0.5-3.4,0.6c-0.1-0.2-0.3-0.3-0.5-0.4c-0.4-0.2-0.8-0.1-1.2,0.2     c-0.4,0.3-0.9,0.7-1.3,1.3c-1,1.2-1,3.4,0.2,7.3c1.6,5.3,3,7.3,5.3,7.4l0.3,0.9c3,9.7,5.9,17.6,13.5,23.5l0.1,0.1     c1.5,1.3,3.4,2.1,5.4,2.1h5.6c2,0,3.9-0.7,5.4-2.1l0.1-0.1c7.6-5.9,10.5-13.8,13.5-23.5l0.3-0.9c2.3-0.1,3.7-2.1,5.3-7.4     C113.6,56.2,113.6,54,112.6,52.8z M110,59.3c-1.7,5.6-2.7,5.6-3.1,5.6c-0.1,0-0.2,0-0.3,0c0,0-0.1,0-0.1,0     c-0.7-0.2-1.4,0.2-1.5,0.9c0,0.1,0,0.1-0.1,0.2l-0.5,1.6c-2.9,9.3-5.6,16.8-12.7,22.3L91.6,90c0,0-0.1,0-0.1,0.1     c-1,0.9-2.3,1.5-3.7,1.5h-5.6c-1.4,0-2.7-0.5-3.7-1.5c0,0-0.1,0-0.1-0.1l-0.1-0.1c-7.1-5.5-9.8-13-12.7-22.3L65,65.8     c-0.2-0.6-0.7-0.9-1.2-0.9c-0.1,0-0.2,0-0.3,0c-0.1,0-0.1,0-0.1,0c-0.1,0-0.2,0-0.3,0c-0.4,0-1.4,0-3.1-5.6     c-1.2-4.1-0.8-4.8-0.7-4.9c0,0,0.1-0.1,0.1-0.1c0.1,0,0.1,0,0.2,0c0.9,0,2.3-0.3,4.7-0.7c1.1-0.2,2.3-0.4,3.7-0.7     c9.8-1.8,19.2-5.9,27-12l1.6-1.3l6.2,9.8c1.6,2.5,3.4,4.8,7.4,4.8c0.1,0,0.2,0,0.3,0c0,0,0.1,0.1,0.1,0.2     C110.7,54.5,111.2,55.3,110,59.3z" fill="#0B1010"/></g><g><path d="M86.4,99.5h-2.7c-0.7,0-1.2,0.6-1.2,1.2s0.6,1.2,1.2,1.2h2.7c0.7,0,1.2-0.6,1.2-1.2S87,99.5,86.4,99.5z" fill="#0B1010"/></g></g></g></svg>