<?xml version="1.0" ?><!DOCTYPE svg  PUBLIC '-//W3C//DTD SVG 1.1//EN'  'http://www.w3.org/Graphics/SVG/1.1/DTD/svg11.dtd'><svg enable-background="new 0 0 128 128" id="Слой_1" version="1.1" viewBox="0 0 128 128" xml:space="preserve" xmlns="http://www.w3.org/2000/svg" xmlns:xlink="http://www.w3.org/1999/xlink"><g><circle cx="64" cy="64" fill="#C0E3CF" r="62"/></g><g><g><g><path d="M87.6,69.9l32.4-32.4c-6.1-13-16.6-23.4-29.6-29.6L58.1,40.4L87.6,69.9z" fill="#EF7063"/></g><g><path d="M80.5,62.5l-0.2,0.1c0.7-8.4-6.4-15.5-14.8-14.8h0l0-0.1c1.9-4.6-2.7-9.2-7.3-7.3l-0.1,0l-14,42     c-0.3,1,0.6,1.9,1.6,1.6l42-14C89.6,65.4,85.1,60.7,80.5,62.5z" fill="#F0CDAB"/></g><g opacity="0.2"><path d="M44.3,83.5C44.3,83.5,44.3,83.5,44.3,83.5C44.3,83.5,44.3,83.5,44.3,83.5z" fill="#FDFDFD"/><path d="M44.5,83.7c0.1,0.1,0.2,0.1,0.2,0.1C44.6,83.8,44.6,83.8,44.5,83.7z" fill="#FDFDFD"/><path d="M44.5,83.7c-0.1-0.1-0.2-0.1-0.2-0.2C44.3,83.6,44.4,83.7,44.5,83.7z" fill="#FDFDFD"/><path d="M44.1,82.4c-0.1,0.4-0.1,0.7,0.1,0.9l21.3-35.5l34.4-34.4c-2.9-2.1-6-3.9-9.3-5.5L58.1,40.4L44.1,82.4z" fill="#FDFDFD"/><path d="M44.3,83.5c0-0.1-0.1-0.1-0.1-0.2l0,0C44.2,83.4,44.2,83.4,44.3,83.5z" fill="#FDFDFD"/></g><g opacity="0.1"><path d="M80.2,62.5L44.7,83.9c0.3,0.1,0.6,0.2,0.9,0.1l8.1-2.7l33.9-11.3l32.4-32.4c-1.6-3.3-3.4-6.4-5.5-9.3     L80.2,62.5z" fill="#08090A"/></g><g><path d="M57.4,41.1c0.2,0.2,0.5,0.3,0.7,0.3s0.5-0.1,0.7-0.3L91.4,8.4c-0.6-0.3-1.3-0.6-1.9-0.9L57.4,39.7     C57,40,57,40.7,57.4,41.1z" fill="#252525"/></g><g><path d="M86.9,69.2c-0.4,0.4-0.4,1,0,1.4c0.2,0.2,0.5,0.3,0.7,0.3s0.5-0.1,0.7-0.3l32.2-32.2     c-0.3-0.6-0.6-1.3-0.9-1.9L86.9,69.2z" fill="#252525"/></g><g><path d="M81.3,61.2c0-3.6-1.4-7-3.9-9.7c-2.7-3-6.6-4.7-10.6-4.7c0.3-1.7,0-3.4-1-4.9c-1.7-2.6-5.1-3.6-8-2.5     l-0.1,0c-0.3,0.1-0.5,0.3-0.6,0.6l-14,42c-0.2,0.7-0.1,1.4,0.3,2c0.4,0.6,1.1,0.9,1.8,0.9c0.2,0,0.5,0,0.7-0.1l42-14     c0.3-0.1,0.5-0.3,0.6-0.6c0.9-2.1,0.7-4.4-0.5-6.2C86.5,61.9,83.9,60.7,81.3,61.2z M86.9,69.1L45.3,83c-0.1,0-0.2,0-0.3-0.1     c-0.1-0.1,0-0.2,0-0.2l13.9-41.6c2-0.7,4.1,0.1,5.3,1.8c0.9,1.3,1,2.8,0.4,4.3l0,0.1c-0.1,0.3-0.1,0.7,0.1,1     c0.2,0.3,0.5,0.4,0.9,0.4c3.9-0.3,7.7,1.2,10.4,4.1c2.4,2.6,3.6,6.1,3.3,9.6c0,0.3,0.1,0.7,0.4,0.9c0.3,0.2,0.6,0.3,1,0.1     l0.2-0.1c2.1-0.8,4.3,0,5.5,1.8C87.1,66.4,87.3,67.8,86.9,69.1z" fill="#252525"/></g><g><path d="M44.1,82.4c-0.3,1,0.6,1.9,1.6,1.6l8.1-2.7l-7-7L44.1,82.4z" fill="#252525"/></g></g></g></svg>