<?xml version="1.0" ?><!DOCTYPE svg  PUBLIC '-//W3C//DTD SVG 1.1//EN'  'http://www.w3.org/Graphics/SVG/1.1/DTD/svg11.dtd'><svg enable-background="new 0 0 128 128" id="Слой_1" version="1.1" viewBox="0 0 128 128" xml:space="preserve" xmlns="http://www.w3.org/2000/svg" xmlns:xlink="http://www.w3.org/1999/xlink"><g><circle cx="64" cy="64" fill="#C1E1CA" r="62"/><g><g><path d="M69,101V21c0-5.5,4.5-10,10-10H31.8c-4.2,2.5-8.1,5.6-11.7,9.2c-24.2,24.2-24.2,63.5,0,87.7     c1.1,1.1,2.3,2.2,3.4,3.2H59C64.5,111,69,106.5,69,101z" fill="#F6F3E0"/></g><g><path d="M70.2,101V21c0-4.8,3.9-8.8,8.8-8.8c0.7,0,1.2-0.6,1.2-1.2S79.7,9.8,79,9.8H34c-1.4,0.8-2.8,1.6-4.2,2.5     h42.1c-2.6,2.1-4.2,5.2-4.2,8.8v80c0,4.8-3.9,8.8-8.8,8.8H22.2c0.9,0.9,1.9,1.7,2.9,2.5H59C65.2,112.3,70.2,107.2,70.2,101z" fill="#0B1010"/></g><g><polygon fill="#00424E" points="41.5,117 49,111 56.5,117 56.5,90.9 41.5,90.9    "/></g><g><path d="M56.5,89.6h-15c-0.7,0-1.2,0.6-1.2,1.2V117c0,0.5,0.3,0.9,0.7,1.1c0.4,0.2,0.9,0.1,1.3-0.2l6.7-5.4     l6.7,5.4c0.2,0.2,0.5,0.3,0.8,0.3c0.2,0,0.4,0,0.5-0.1c0.4-0.2,0.7-0.6,0.7-1.1V90.9C57.8,90.2,57.2,89.6,56.5,89.6z M55.2,114.4     l-5.5-4.4c-0.2-0.2-0.5-0.3-0.8-0.3s-0.6,0.1-0.8,0.3l-5.5,4.4V92.1h12.5V114.4z" fill="#0B1010"/></g><g><path d="M60.2,71c0-0.7-0.6-1.2-1.2-1.2H2.3c0.1,0.8,0.2,1.7,0.3,2.5H59C59.7,72.3,60.2,71.7,60.2,71z" fill="#0B1010"/></g><g><path d="M19,92.3c0.7,0,1.2-0.6,1.2-1.2s-0.6-1.2-1.2-1.2H9c-0.5,0-0.9,0.3-1.1,0.7c0.3,0.6,0.6,1.2,0.9,1.8     c0.1,0,0.1,0,0.2,0H19z" fill="#0B1010"/></g><g><path d="M60.2,61c0-0.7-0.6-1.2-1.2-1.2H2.2c-0.1,0.8-0.1,1.7-0.1,2.5h57C59.7,62.3,60.2,61.7,60.2,61z" fill="#0B1010"/></g><g><path d="M60.2,51c0-0.7-0.6-1.2-1.2-1.2H3.7c-0.2,0.8-0.4,1.7-0.5,2.5H59C59.7,52.3,60.2,51.7,60.2,51z" fill="#0B1010"/></g><g><path d="M60.2,41c0-0.7-0.6-1.2-1.2-1.2H6.9c-0.4,0.8-0.7,1.7-1,2.5H59C59.7,42.3,60.2,41.7,60.2,41z" fill="#0B1010"/></g><g><path d="M60.2,31c0-0.7-0.6-1.2-1.2-1.2H12.3c-0.5,0.8-1.1,1.7-1.6,2.5H59C59.7,32.3,60.2,31.7,60.2,31z" fill="#0B1010"/></g><g opacity="0.1"><path d="M69,21c0-3.7,2-6.9,5-8.7c-1.5-0.9-3.2-1.3-5-1.3H31.8c-4.2,2.5-8.1,5.6-11.7,9.2     c-3.3,3.3-6.2,7-8.6,10.8H69V21z" fill="#030505"/></g><g><path d="M79,11H31.8c-4.2,2.5-8.1,5.6-11.7,9.2c-0.3,0.3-0.5,0.6-0.8,0.8H89C89,15.5,84.5,11,79,11z" fill="#F6F3E0"/></g><g><path d="M90.2,21c0-6.2-5-11.2-11.2-11.2H34c-1.4,0.8-2.8,1.6-4.2,2.5H79c4.4,0,8.1,3.3,8.7,7.5H20.6     c-0.1,0.1-0.3,0.3-0.4,0.4c-0.7,0.7-1.3,1.4-2,2.1H89C89.7,22.3,90.2,21.7,90.2,21z" fill="#0B1010"/></g><g><circle cx="49" cy="91" fill="#E3725D" r="12.5"/></g><g><path d="M49,77.3c-7.6,0-13.8,6.2-13.8,13.8s6.2,13.8,13.8,13.8S62.8,98.6,62.8,91S56.6,77.3,49,77.3z M49,102.3     c-6.2,0-11.2-5-11.2-11.2s5-11.2,11.2-11.2s11.2,5,11.2,11.2S55.2,102.3,49,102.3z" fill="#0B1010"/></g></g></g></svg>