<?xml version="1.0" ?><!DOCTYPE svg  PUBLIC '-//W3C//DTD SVG 1.1//EN'  'http://www.w3.org/Graphics/SVG/1.1/DTD/svg11.dtd'><svg enable-background="new 0 0 128 128" id="Слой_1" version="1.1" viewBox="0 0 128 128" xml:space="preserve" xmlns="http://www.w3.org/2000/svg" xmlns:xlink="http://www.w3.org/1999/xlink"><g><circle cx="64" cy="64" fill="#EEEBA8" r="62"/><g><g><path d="M46.6,113.6l43.9-54.8c4.7-5.9,4.7-14.3,0-20.2L71.1,14.4c-3.1-3.8-7.7-6.1-12.6-6.1H36.7     C16.1,18.5,2,39.6,2,64c0,24.3,14,45.3,34.3,55.5C40.2,118.9,43.9,117,46.6,113.6z" fill="#65C1C2"/></g><g opacity="0.4"><path d="M90.5,38.6L71.1,14.4c-3.1-3.8-7.7-6.1-12.6-6.1H36.7C20.6,16.3,8.4,30.9,3.9,48.7H94     C94,45.1,92.8,41.5,90.5,38.6z" fill="#F9FAFA"/></g><path d="M66.7,10.6c-2.5-1.5-5.3-2.3-8.2-2.3H36.7C20.6,16.3,8.4,30.9,3.9,48.7    C2.7,53.6,2,58.7,2,64c0,2.1,0.1,4.1,0.3,6.1l22.9,42.3c3.4,2.7,7.1,5.1,11.1,7.1c1-0.1,2-0.4,3-0.7l38-70.1L66.7,10.6z" fill="#F9FAFA" opacity="0.3"/><path d="M32.6,119.5c1.3,0.2,2.5,0.2,3.8,0.1c-1.5-0.7-2.9-1.5-4.3-2.4L32.6,119.5z" fill="#F9FAFA"/><g opacity="0.3"><path d="M50.9,48.7L65.6,10c-2.2-1.1-4.6-1.7-7.1-1.7H36.7c-10.9,5.4-20,13.9-26.1,24.3l6.5,16H50.9z" fill="#F9FAFA"/></g><g opacity="0.3"><path d="M34.8,8.4l-0.5,1.2c0.3-0.2,0.6-0.3,0.9-0.5L34.8,8.4z" fill="#F9FAFA"/><path d="M35.1,9.1c-0.3,0.2-0.6,0.3-0.9,0.5L17.1,48.7l15.1,68.5c1.4,0.8,2.8,1.6,4.3,2.4c0.1,0,0.2,0,0.3,0     l14.2-70.8L35.1,9.1z" fill="#F9FAFA"/></g><g><path d="M47.6,114.4l43.9-54.8c5.1-6.4,5.1-15.3,0-21.7L72.1,13.6c-3.3-4.1-8.3-6.5-13.6-6.5H39.4     c-1.7,0.8-3.5,1.6-5.1,2.5h24.3c4.5,0,8.8,2,11.6,5.6l19.4,24.2c4.4,5.5,4.4,13.1,0,18.6l-43.9,54.8c-2.8,3.5-6.9,5.5-11.4,5.6     c1.3,0.7,2.6,1.4,4,2C41.9,119.5,45.2,117.4,47.6,114.4z" fill="#0B1010"/></g></g></g></svg>