<?xml version="1.0" ?><!DOCTYPE svg  PUBLIC '-//W3C//DTD SVG 1.1//EN'  'http://www.w3.org/Graphics/SVG/1.1/DTD/svg11.dtd'><svg enable-background="new 0 0 128 128" id="Слой_1" version="1.1" viewBox="0 0 128 128" xml:space="preserve" xmlns="http://www.w3.org/2000/svg" xmlns:xlink="http://www.w3.org/1999/xlink"><g><circle cx="64" cy="64" fill="#C0E3CF" r="62"/><g><path d="M112.6,102.4V68.9c0-3.1-2.5-5.6-5.6-5.6H53.9c-1.5,0-2.9-0.6-4-1.7l-0.9-0.9c-1.1-1.1-2.5-1.7-4-1.7h-17    c-3.1,0-5.6,2.5-5.6,5.6V110c11,9.9,25.5,16,41.5,16C83.7,126,101.3,116.8,112.6,102.4z" fill="#F2D856"/></g><g><path d="M23.5,64.7c0-2.6,2.1-4.6,4.6-4.6h17c1.2,0,2.4,0.5,3.3,1.4l0.9,0.9c1.3,1.3,2.9,1.9,4.7,1.9H107    c2.6,0,4.6,2.1,4.6,4.6v34.8c0.7-0.8,1.4-1.7,2-2.5V68.9c0-3.7-3-6.6-6.6-6.6H53.9c-1.2,0-2.4-0.5-3.3-1.4L49.8,60    c-1.3-1.3-2.9-1.9-4.7-1.9h-17c-3.7,0-6.6,3-6.6,6.6v43.4c0.7,0.6,1.3,0.2,2,0.8V64.7z" fill="#252525"/></g><g><path d="M109.8,105.8V73.1c0-3.1-2.5-5.6-5.6-5.6H30.9c-3.1,0-5.6,2.5-5.6,5.6v39.3c8.8,7.1,19.6,11.7,31.4,13.1    h14.7C86.5,123.8,100,116.5,109.8,105.8z" fill="#F4F2ED"/></g><g opacity="0.1"><path d="M109.8,105.8V73.1c0-3.1-2.5-5.6-5.6-5.6H30.9c-3.1,0-5.6,2.5-5.6,5.6v39.3c8.8,7.1,19.6,11.7,31.4,13.1    h14.7C86.5,123.8,100,116.5,109.8,105.8z" fill="#090B0B"/></g><g><path d="M64,126c4.6,0,9-0.5,13.3-1.4H50.7C55,125.5,59.4,126,64,126z" fill="#252525"/><path d="M26.3,73.1c0-2.6,2.1-4.6,4.6-4.6h73.2c2.6,0,4.6,2.1,4.6,4.6v33.7c0.7-0.7,1.4-1.4,2-2.2V73.1    c0-3.7-3-6.6-6.6-6.6H30.9c-3.7,0-6.6,3-6.6,6.6v38.5c0.7,0.5,1.3,1.1,2,1.6V73.1z" fill="#252525"/></g><path d="M105.7,80.1c-0.2-2.9-2.7-5.2-5.6-5.2H26.9c-3.3,0-5.9,2.8-5.6,6.1l2.4,30.1C34.5,120.4,48.6,126,64,126   c17.2,0,32.7-7,43.9-18.3L105.7,80.1z" fill="#F4F2ED"/><path d="M108.9,106.7l-2.2-27.6c-0.3-3.4-3.2-6.1-6.6-6.1H26.9c-1.8,0-3.6,0.8-4.9,2.1c-1.3,1.4-1.9,3.2-1.7,5   l2.4,28.1c0.7,0.6,1.4,1.2,2.2,1.8L22.3,80c-0.1-1.3,0.3-2.6,1.2-3.5s2.1-1.5,3.4-1.5h73.2c2.4,0,4.4,1.9,4.6,4.3l2.4,26.3   C107.7,104.9,108.3,107.3,108.9,106.7z" fill="#252525"/><g><path d="M64,126c17.7,0,33.7-7.4,45-19.4l-5.2-22.9c-0.6-2.6-2.9-4.4-5.5-4.4h-80c-3.6,0-6.3,3.4-5.5,6.9l4.1,18    C28.2,117.6,45.1,126,64,126z" fill="#F2D856"/></g><g><path d="M13.8,86c-0.3-1.4,0-2.8,0.9-3.9c0.9-1.1,2.2-1.7,3.6-1.7h80c2.2,0,4,1.5,4.5,3.6l5.4,23.5    c0.6-0.6,1.1-1.1,1.7-1.7l-5.1-22.3c-0.7-3-3.4-5.2-6.5-5.2h-80c-2,0-3.9,0.9-5.2,2.5c-1.3,1.6-1.7,3.6-1.3,5.6l3.7,16.1    c0.9,1.1,1.8,2.2,2.8,3.3L13.8,86z" fill="#252525"/></g></g></svg>